<?xml version="1.0" encoding="UTF-8" standalone="no"?>
<!DOCTYPE svg PUBLIC "-//W3C//DTD SVG 1.1//EN"
 "http://www.w3.org/Graphics/SVG/1.1/DTD/svg11.dtd">
<!-- Generated by graphviz version 3.0.0 (0)
 -->
<!-- Pages: 1 -->
<svg width="753pt" height="332pt"
 viewBox="0.00 0.00 753.44 332.00" xmlns="http://www.w3.org/2000/svg" xmlns:xlink="http://www.w3.org/1999/xlink">
<g id="graph0" class="graph" transform="scale(1 1) rotate(0) translate(4 328)">
<polygon fill="white" stroke="transparent" points="-4,4 -4,-328 749.44,-328 749.44,4 -4,4"/>
<!-- emulate.c -->
<g id="node1" class="node">
<title>emulate.c</title>
<ellipse fill="none" stroke="black" cx="513.5" cy="-234" rx="45.49" ry="18"/>
<text text-anchor="middle" x="513.5" y="-230.3" font-family="Times,serif" font-size="14.00">emulate.c</text>
</g>
<!-- emu.h -->
<g id="node2" class="node">
<title>emu.h</title>
<ellipse fill="none" stroke="black" cx="361.5" cy="-162" rx="33.29" ry="18"/>
<text text-anchor="middle" x="361.5" y="-158.3" font-family="Times,serif" font-size="14.00">emu.h</text>
</g>
<!-- emulate.c&#45;&gt;emu.h -->
<g id="edge1" class="edge">
<title>emulate.c&#45;&gt;emu.h</title>
<path fill="none" stroke="black" d="M484.91,-219.83C459.48,-208.12 422.26,-190.98 395.35,-178.59"/>
<polygon fill="black" stroke="black" points="396.49,-175.26 385.94,-174.26 393.56,-181.62 396.49,-175.26"/>
</g>
<!-- core.h -->
<g id="node3" class="node">
<title>core.h</title>
<ellipse fill="none" stroke="black" cx="425.5" cy="-18" rx="32.49" ry="18"/>
<text text-anchor="middle" x="425.5" y="-14.3" font-family="Times,serif" font-size="14.00">core.h</text>
</g>
<!-- emu.h&#45;&gt;core.h -->
<g id="edge2" class="edge">
<title>emu.h&#45;&gt;core.h</title>
<path fill="none" stroke="black" d="M362.66,-143.79C364.48,-125.24 369.06,-95.25 380.5,-72 386.02,-60.77 394.45,-49.95 402.52,-41.04"/>
<polygon fill="black" stroke="black" points="405.1,-43.41 409.44,-33.75 400.02,-38.59 405.1,-43.41"/>
</g>
<!-- mask.h -->
<g id="node4" class="node">
<title>mask.h</title>
<ellipse fill="none" stroke="black" cx="425.5" cy="-90" rx="36.29" ry="18"/>
<text text-anchor="middle" x="425.5" y="-86.3" font-family="Times,serif" font-size="14.00">mask.h</text>
</g>
<!-- emu.h&#45;&gt;mask.h -->
<g id="edge3" class="edge">
<title>emu.h&#45;&gt;mask.h</title>
<path fill="none" stroke="black" d="M375.7,-145.46C384.03,-136.35 394.73,-124.65 404.07,-114.43"/>
<polygon fill="black" stroke="black" points="406.72,-116.72 410.89,-106.98 401.56,-112 406.72,-116.72"/>
</g>
<!-- mask.h&#45;&gt;core.h -->
<g id="edge6" class="edge">
<title>mask.h&#45;&gt;core.h</title>
<path fill="none" stroke="black" d="M425.5,-71.7C425.5,-63.98 425.5,-54.71 425.5,-46.11"/>
<polygon fill="black" stroke="black" points="429,-46.1 425.5,-36.1 422,-46.1 429,-46.1"/>
</g>
<!-- emu.c -->
<g id="node5" class="node">
<title>emu.c</title>
<ellipse fill="none" stroke="black" cx="32.5" cy="-234" rx="32.49" ry="18"/>
<text text-anchor="middle" x="32.5" y="-230.3" font-family="Times,serif" font-size="14.00">emu.c</text>
</g>
<!-- emu.c&#45;&gt;emu.h -->
<g id="edge4" class="edge">
<title>emu.c&#45;&gt;emu.h</title>
<path fill="none" stroke="black" d="M58.04,-222.69C64.63,-220.27 71.77,-217.86 78.5,-216 162.69,-192.74 263.8,-176.54 319.5,-168.6"/>
<polygon fill="black" stroke="black" points="320.28,-172.03 329.69,-167.17 319.3,-165.09 320.28,-172.03"/>
</g>
<!-- dp.h -->
<g id="node6" class="node">
<title>dp.h</title>
<ellipse fill="none" stroke="black" cx="561.5" cy="-162" rx="27" ry="18"/>
<text text-anchor="middle" x="561.5" y="-158.3" font-family="Times,serif" font-size="14.00">dp.h</text>
</g>
<!-- dp.h&#45;&gt;core.h -->
<g id="edge5" class="edge">
<title>dp.h&#45;&gt;core.h</title>
<path fill="none" stroke="black" d="M547.45,-146.34C523.66,-121.49 475.25,-70.95 447.11,-41.56"/>
<polygon fill="black" stroke="black" points="449.52,-39.02 440.08,-34.22 444.47,-43.87 449.52,-39.02"/>
</g>
<!-- shift.h -->
<g id="node7" class="node">
<title>shift.h</title>
<ellipse fill="none" stroke="black" cx="259.5" cy="-234" rx="33.29" ry="18"/>
<text text-anchor="middle" x="259.5" y="-230.3" font-family="Times,serif" font-size="14.00">shift.h</text>
</g>
<!-- shift.h&#45;&gt;emu.h -->
<g id="edge7" class="edge">
<title>shift.h&#45;&gt;emu.h</title>
<path fill="none" stroke="black" d="M279.16,-219.5C294.45,-209.02 315.86,-194.32 333.01,-182.55"/>
<polygon fill="black" stroke="black" points="335.28,-185.24 341.54,-176.69 331.32,-179.47 335.28,-185.24"/>
</g>
<!-- emu_br.c -->
<g id="node8" class="node">
<title>emu_br.c</title>
<ellipse fill="none" stroke="black" cx="164.5" cy="-234" rx="44.39" ry="18"/>
<text text-anchor="middle" x="164.5" y="-230.3" font-family="Times,serif" font-size="14.00">emu_br.c</text>
</g>
<!-- emu_br.c&#45;&gt;emu.h -->
<g id="edge8" class="edge">
<title>emu_br.c&#45;&gt;emu.h</title>
<path fill="none" stroke="black" d="M196.59,-221.6C231.67,-209.13 287.78,-189.19 324.64,-176.1"/>
<polygon fill="black" stroke="black" points="326.24,-179.24 334.49,-172.6 323.9,-172.65 326.24,-179.24"/>
</g>
<!-- emu_cond.c -->
<g id="node9" class="node">
<title>emu_cond.c</title>
<ellipse fill="none" stroke="black" cx="691.5" cy="-306" rx="53.89" ry="18"/>
<text text-anchor="middle" x="691.5" y="-302.3" font-family="Times,serif" font-size="14.00">emu_cond.c</text>
</g>
<!-- emu_cond.c&#45;&gt;emu.h -->
<g id="edge9" class="edge">
<title>emu_cond.c&#45;&gt;emu.h</title>
<path fill="none" stroke="black" d="M701.77,-288.12C712.27,-268.47 724.78,-236.13 707.5,-216 697.64,-204.52 493.8,-178.84 403.7,-167.99"/>
<polygon fill="black" stroke="black" points="403.89,-164.49 393.55,-166.77 403.06,-171.44 403.89,-164.49"/>
</g>
<!-- unused.h -->
<g id="node10" class="node">
<title>unused.h</title>
<ellipse fill="none" stroke="black" cx="656.5" cy="-234" rx="42.49" ry="18"/>
<text text-anchor="middle" x="656.5" y="-230.3" font-family="Times,serif" font-size="14.00">unused.h</text>
</g>
<!-- emu_cond.c&#45;&gt;unused.h -->
<g id="edge10" class="edge">
<title>emu_cond.c&#45;&gt;unused.h</title>
<path fill="none" stroke="black" d="M683.02,-288.05C678.94,-279.89 673.95,-269.91 669.41,-260.82"/>
<polygon fill="black" stroke="black" points="672.49,-259.17 664.89,-251.79 666.23,-262.3 672.49,-259.17"/>
</g>
<!-- emu_dp.c -->
<g id="node11" class="node">
<title>emu_dp.c</title>
<ellipse fill="none" stroke="black" cx="489.5" cy="-306" rx="46.29" ry="18"/>
<text text-anchor="middle" x="489.5" y="-302.3" font-family="Times,serif" font-size="14.00">emu_dp.c</text>
</g>
<!-- emu_dp.c&#45;&gt;emu.h -->
<g id="edge11" class="edge">
<title>emu_dp.c&#45;&gt;emu.h</title>
<path fill="none" stroke="black" d="M478.35,-288.49C465.56,-270.03 443.5,-239.62 421.5,-216 410.9,-204.62 398.11,-193.07 387.07,-183.67"/>
<polygon fill="black" stroke="black" points="389.3,-180.97 379.39,-177.23 384.81,-186.34 389.3,-180.97"/>
</g>
<!-- emu_dp.c&#45;&gt;dp.h -->
<g id="edge12" class="edge">
<title>emu_dp.c&#45;&gt;dp.h</title>
<path fill="none" stroke="black" d="M520.74,-292.59C537.89,-283.98 557.61,-270.66 567.5,-252 577.6,-232.92 574.92,-208.23 570.38,-189.69"/>
<polygon fill="black" stroke="black" points="573.7,-188.55 567.66,-179.84 566.95,-190.41 573.7,-188.55"/>
</g>
<!-- emu_dp.c&#45;&gt;shift.h -->
<g id="edge13" class="edge">
<title>emu_dp.c&#45;&gt;shift.h</title>
<path fill="none" stroke="black" d="M451.67,-295.64C413.44,-285.88 352.83,-269.57 301.5,-252 299.24,-251.23 296.92,-250.4 294.6,-249.54"/>
<polygon fill="black" stroke="black" points="295.68,-246.2 285.09,-245.88 293.17,-252.74 295.68,-246.2"/>
</g>
<!-- emu_dp.c&#45;&gt;unused.h -->
<g id="edge14" class="edge">
<title>emu_dp.c&#45;&gt;unused.h</title>
<path fill="none" stroke="black" d="M519.74,-292.32C547.3,-280.77 588.16,-263.64 618.04,-251.12"/>
<polygon fill="black" stroke="black" points="619.45,-254.32 627.32,-247.23 616.74,-247.87 619.45,-254.32"/>
</g>
<!-- emu_mul.c -->
<g id="node12" class="node">
<title>emu_mul.c</title>
<ellipse fill="none" stroke="black" cx="361.5" cy="-234" rx="51.19" ry="18"/>
<text text-anchor="middle" x="361.5" y="-230.3" font-family="Times,serif" font-size="14.00">emu_mul.c</text>
</g>
<!-- emu_mul.c&#45;&gt;emu.h -->
<g id="edge15" class="edge">
<title>emu_mul.c&#45;&gt;emu.h</title>
<path fill="none" stroke="black" d="M361.5,-215.7C361.5,-207.98 361.5,-198.71 361.5,-190.11"/>
<polygon fill="black" stroke="black" points="365,-190.1 361.5,-180.1 358,-190.1 365,-190.1"/>
</g>
<!-- emu_sdt.c -->
<g id="node13" class="node">
<title>emu_sdt.c</title>
<ellipse fill="none" stroke="black" cx="117.5" cy="-306" rx="47.39" ry="18"/>
<text text-anchor="middle" x="117.5" y="-302.3" font-family="Times,serif" font-size="14.00">emu_sdt.c</text>
</g>
<!-- emu_sdt.c&#45;&gt;emu.h -->
<g id="edge16" class="edge">
<title>emu_sdt.c&#45;&gt;emu.h</title>
<path fill="none" stroke="black" d="M110.18,-288.2C102.91,-268.61 95.02,-236.34 111.5,-216 137.03,-184.49 253.6,-170.95 318.15,-165.79"/>
<polygon fill="black" stroke="black" points="318.72,-169.26 328.42,-165.01 318.19,-162.28 318.72,-169.26"/>
</g>
<!-- emu_sdt.c&#45;&gt;shift.h -->
<g id="edge17" class="edge">
<title>emu_sdt.c&#45;&gt;shift.h</title>
<path fill="none" stroke="black" d="M145.21,-291.34C168.54,-279.84 201.96,-263.36 226.64,-251.2"/>
<polygon fill="black" stroke="black" points="228.2,-254.33 235.63,-246.77 225.11,-248.05 228.2,-254.33"/>
</g>
<!-- emu_shift.c -->
<g id="node14" class="node">
<title>emu_shift.c</title>
<ellipse fill="none" stroke="black" cx="259.5" cy="-306" rx="52.79" ry="18"/>
<text text-anchor="middle" x="259.5" y="-302.3" font-family="Times,serif" font-size="14.00">emu_shift.c</text>
</g>
<!-- emu_shift.c&#45;&gt;shift.h -->
<g id="edge18" class="edge">
<title>emu_shift.c&#45;&gt;shift.h</title>
<path fill="none" stroke="black" d="M259.5,-287.7C259.5,-279.98 259.5,-270.71 259.5,-262.11"/>
<polygon fill="black" stroke="black" points="263,-262.1 259.5,-252.1 256,-262.1 263,-262.1"/>
</g>
</g>
</svg>
